{"title":"Van Helsing BDRip XviD AC3-DEA","uid":5061677,"size":1547171885,"categoryP":"video","categoryS":"movies","magnet":"?xt=urn:btih:cb3e0e72fa4b6a68a245e0e33f5bd1bfe1eb0fad&amp;dn=Van+Helsing+BDRip+XviD+AC3-DEA&amp;tr=udp%3A%2F%2Ftracker.openbittorrent.com%3A80&amp;tr=udp%3A%2F%2Fopen.demonii.com%3A1337&amp;tr=udp%3A%2F%2Ftracker.coppersurfer.tk%3A6969&amp;tr=udp%3A%2F%2Fexodus.desync.com%3A6969","seeders":1,"leechers":1,"uploader":"raymondhome","files":2,"time":1250731987,"description":"Format : AVI\nFormat/Info : Audio Video Interleave\nFile size : 1.44 GiB\nDuration : 2h 11mn\nOverall bit rate : 1 569 Kbps\nWriting application\n: VirtualDubMod 1.5.10.2 (build 2540/release)\nWriting library : VirtualDubMod build 2540/release\n\nVideo\nID : 0\nFormat : MPEG-4 Visual\nFormat profile : AdvancedSimple@L5\nFormat settings, BVOP : Yes\nFormat settings, QPel : No\nFormat settings, GMC : No warppoints\nFormat settings, Matrix : Default (MPEG)\nCodec ID : XVID\nCodec ID/Hint : XviD\nDuration : 2h 11mn\nBit rate : 1 175 Kbps\nWidth : 720 pixels\nHeight : 384 pixels\nDisplay aspect ratio : 1.875\nFrame rate : 23.976 fps\nResolution : 24 bits\nColorimetry : 4:2:0\nScan type : Progressive\nBits/(Pixel*Frame) : 0.177\nStream size : 1.08 GiB (75%)\nWriting library : XviD 1.2.1 (UTC 2008-12-04)\n\nAudio\nID : 1\nFormat : AC-3\nFormat/Info : Audio Coding 3\nCodec ID : 2000\nDuration : 2h 11mn\nBit rate mode : Constant\nBit rate : 384 Kbps\nChannel(s) : 6 channels\nChannel positions : Front: L C R, Surround: L R, LFE\nSampling rate : 48.0 KHz\nStream size : 361 MiB (24%)\nAlignment : Split accross interleaves\nInterleave, duration : 42 ms (1.00 video frame)\nInterleave, preload duration : 500 ms\n\nLove for All and Sharing is the first step to solving all the problems of humanity.\n\nWebsites I want to share.\n\n &lt;a href=&quot;\nhttp://www.shareintl.org/&quot; rel=&quot;nofollow&quot; target=&quot;_NEW&quot;&gt;\nhttp://www.shareintl.org/&lt;/a&gt;\n\n &lt;a href=&quot;\nhttp://www.lightmiddleway.com&quot; rel=&quot;nofollow&quot; target=&quot;_NEW&quot;&gt;\nhttp://www.lightmiddleway.com&lt;/a&gt;\n\n\nThank you very much\n\ncredit to everyone for sharing","torrent":{"xt":"urn:btih:cb3e0e72fa4b6a68a245e0e33f5bd1bfe1eb0fad","amp;dn":"Van+Helsing+BDRip+XviD+AC3-DEA","amp;tr":["udp%3A%2F%2Ftracker.openbittorrent.com%3A80","udp%3A%2F%2Fopen.demonii.com%3A1337","udp%3A%2F%2Ftracker.coppersurfer.tk%3A6969","udp%3A%2F%2Fexodus.desync.com%3A6969"],"infoHash":"cb3e0e72fa4b6a68a245e0e33f5bd1bfe1eb0fad","infoHashBuffer":{"type":"Buffer","data":[203,62,14,114,250,75,106,104,162,69,224,227,63,91,209,191,225,235,15,173]},"announce":[],"urlList":[]}}